<svg width="236" height="50" viewBox="0 0 236 60" fill="none" xmlns="http://www.w3.org/2000/svg">
<g filter="url(#filter0_d)">
<path d="M36.07421875,43.984375l-2.0703125-6.796875l-10.41015625,0l-2.0703125,6.796875l-6.5234375,0l10.078125-28.671875l7.40234375,0l10.1171875,28.671875l-6.5234375,0z M32.55859375,32.109375q-2.87109375-9.23828125-3.232421875-10.44921875t-0.517578125-1.9140625q-0.64453125,2.5-3.69140625,12.36328125l7.44140625,0z M63.7064453125,37.5q0,3.359375-2.333984375,5.1171875t-6.982421875,1.7578125q-2.3828125,0-4.0625-0.322265625t-3.14453125-0.947265625l0-4.921875q1.66015625,0.78125,3.740234375,1.30859375t3.662109375,0.52734375q3.2421875,0,3.2421875-1.875q0-0.703125-0.4296875-1.142578125t-1.484375-0.99609375t-2.8125-1.298828125q-2.51953125-1.0546875-3.701171875-1.953125t-1.71875-2.060546875t-0.537109375-2.861328125q0-2.91015625,2.255859375-4.501953125t6.396484375-1.591796875q3.9453125,0,7.67578125,1.71875l-1.796875,4.296875q-1.640625-0.703125-3.06640625-1.15234375t-2.91015625-0.44921875q-2.63671875,0-2.63671875,1.42578125q0,0.80078125,0.849609375,1.38671875t3.720703125,1.73828125q2.55859375,1.03515625,3.75,1.93359375t1.7578125,2.0703125t0.56640625,2.79296875z M91.260546875,43.984375l-5.95703125,0l0-12.75390625q0-4.7265625-3.515625-4.7265625q-2.5,0-3.61328125,1.69921875t-1.11328125,5.5078125l0,10.2734375l-5.95703125,0l0-30.390625l5.95703125,0l0,6.19140625q0,0.72265625-0.13671875,3.3984375l-0.13671875,1.7578125l0.3125,0q1.9921875-3.203125,6.328125-3.203125q3.84765625,0,5.83984375,2.0703125t1.9921875,5.9375l0,14.23828125z M99.8888671875,16.50390625q0-2.91015625,3.2421875-2.91015625t3.2421875,2.91015625q0,1.38671875-0.810546875,2.158203125t-2.431640625,0.771484375q-3.2421875,0-3.2421875-2.9296875z M106.0998046875,43.984375l-5.95703125,0l0-21.8359375l5.95703125,0l0,21.8359375z M130.33359375,37.5q0,3.359375-2.333984375,5.1171875t-6.982421875,1.7578125q-2.3828125,0-4.0625-0.322265625t-3.14453125-0.947265625l0-4.921875q1.66015625,0.78125,3.740234375,1.30859375t3.662109375,0.52734375q3.2421875,0,3.2421875-1.875q0-0.703125-0.4296875-1.142578125t-1.484375-0.99609375t-2.8125-1.298828125q-2.51953125-1.0546875-3.701171875-1.953125t-1.71875-2.060546875t-0.537109375-2.861328125q0-2.91015625,2.255859375-4.501953125t6.396484375-1.591796875q3.9453125,0,7.67578125,1.71875l-1.796875,4.296875q-1.640625-0.703125-3.06640625-1.15234375t-2.91015625-0.44921875q-2.63671875,0-2.63671875,1.42578125q0,0.80078125,0.849609375,1.38671875t3.720703125,1.73828125q2.55859375,1.03515625,3.75,1.93359375t1.7578125,2.0703125t0.56640625,2.79296875z M157.8876953125,43.984375l-5.95703125,0l0-12.75390625q0-4.7265625-3.515625-4.7265625q-2.5,0-3.61328125,1.69921875t-1.11328125,5.5078125l0,10.2734375l-5.95703125,0l0-30.390625l5.95703125,0l0,6.19140625q0,0.72265625-0.13671875,3.3984375l-0.13671875,1.7578125l0.3125,0q1.9921875-3.203125,6.328125-3.203125q3.84765625,0,5.83984375,2.0703125t1.9921875,5.9375l0,14.23828125z" fill="#222222"/>
<path d="M169.17470703125,48.3349609375q-1.79443359375,0-3.12744140625-0.3759765625l0-4.4091796875q1.3671875,0.341796875,2.4951171875,0.341796875q1.7431640625,0,2.4951171875-1.085205078125t0.751953125-3.392333984375l0-23.4130859375l5.2978515625,0l0,23.37890625q0,4.375-1.99951171875,6.6650390625t-5.9130859375,2.2900390625z M203.00866699219,40.986328125l-5.21240234375,0l0-11.15966796875q0-4.1357421875-3.076171875-4.1357421875q-2.1875,0-3.16162109375,1.48681640625t-0.97412109375,4.8193359375l0,8.9892578125l-5.21240234375,0l0-26.591796875l5.21240234375,0l0,5.41748046875q0,0.63232421875-0.11962890625,2.9736328125l-0.11962890625,1.5380859375l0.2734375,0q1.7431640625-2.802734375,5.537109375-2.802734375q3.36669921875,0,5.10986328125,1.8115234375t1.7431640625,5.1953125l0,12.45849609375z M222.91440429687,40.986328125l-1.00830078125-2.59765625l-0.13671875,0q-1.31591796875,1.65771484375-2.708740234375,2.298583984375t-3.631591796875,0.640869140625q-2.75146484375,0-4.332275390625-1.572265625t-1.580810546875-4.4775390625q0-3.0419921875,2.127685546875-4.486083984375t6.417236328125-1.597900390625l3.3154296875-0.1025390625l0-0.83740234375q0-2.9052734375-2.9736328125-2.9052734375q-2.2900390625,0-5.38330078125,1.38427734375l-1.72607421875-3.5205078125q3.29833984375-1.72607421875,7.314453125-1.72607421875q3.84521484375,0,5.89599609375,1.6748046875t2.05078125,5.0927734375l0,12.73193359375l-3.64013671875,0z M221.37631835937,32.1337890625l-2.0166015625,0.068359375q-2.27294921875,0.068359375-3.3837890625,0.8203125t-1.11083984375,2.2900390625q0,2.20458984375,2.529296875,2.20458984375q1.8115234375,0,2.896728515625-1.04248046875t1.085205078125-2.7685546875l0-1.572265625z" fill="#E9B949"/>
</g>
<defs>
<filter id="filter0_d" x="15.0713" y="7.5" width="585.652" height="50.793" filterUnits="userSpaceOnUse" color-interpolation-filters="sRGB">
<feFlood flood-opacity="0" result="BackgroundImageFix"/>
<feColorMatrix in="SourceAlpha" type="matrix" values="0 0 0 0 0 0 0 0 0 0 0 0 0 0 0 0 0 0 127 0"/>
<feOffset dy="4"/>
<feGaussianBlur stdDeviation="2"/>
<feColorMatrix type="matrix" values="0 0 0 0 0 0 0 0 0 0 0 0 0 0 0 0 0 0 0.25 0"/>
<feBlend mode="normal" in2="BackgroundImageFix" result="effect1_dropShadow"/>
<feBlend mode="normal" in="SourceGraphic" in2="effect1_dropShadow" result="shape"/>
</filter>
</defs>
</svg>
